<svg width="500" height="500" viewBox="0 0 500 500" fill="none" xmlns="http://www.w3.org/2000/svg">
<path d="M409.13 103C384.25 46.2698 324.53 24.9098 277.41 62.9998C259.01 77.8598 247.53 101.51 225 111C203.86 119.9 177.08 117.28 154.22 122.1C105.54 132.3 40.0003 171 45.0003 230.62C47.1903 256.75 64.8103 285.76 73.5203 310.2C83.5203 338.32 89.5203 373.5 115.99 390.31C161.37 419.17 216.11 395.58 256.99 372.31C278.99 359.8 291.1 352.11 314.79 356.4C336.72 360.4 356.47 374.4 377.9 357.79C393.99 345.32 395.32 320.05 408.83 305.21C424.05 288.49 439.48 287.28 447.39 262.15C456.98 231.66 442.85 212.61 433.3 185.37C423.75 158.13 420.85 129.69 409.13 103Z" fill="#337ACC"/>
<g opacity="0.7">
<path d="M409.13 103C384.25 46.2698 324.53 24.9098 277.41 62.9998C259.01 77.8598 247.53 101.51 225 111C203.86 119.9 177.08 117.28 154.22 122.1C105.54 132.3 40.0003 171 45.0003 230.62C47.1903 256.75 64.8103 285.76 73.5203 310.2C83.5203 338.32 89.5203 373.5 115.99 390.31C161.37 419.17 216.11 395.58 256.99 372.31C278.99 359.8 291.1 352.11 314.79 356.4C336.72 360.4 356.47 374.4 377.9 357.79C393.99 345.32 395.32 320.05 408.83 305.21C424.05 288.49 439.48 287.28 447.39 262.15C456.98 231.66 442.85 212.61 433.3 185.37C423.75 158.13 420.85 129.69 409.13 103Z" fill="white"/>
</g>
<path d="M219.81 437.68C305.183 437.68 374.39 433.368 374.39 428.05C374.39 422.731 305.183 418.42 219.81 418.42C134.438 418.42 65.2305 422.731 65.2305 428.05C65.2305 433.368 134.438 437.68 219.81 437.68Z" fill="#337ACC"/>
<path opacity="0.8" d="M219.81 437.68C305.183 437.68 374.39 433.368 374.39 428.05C374.39 422.731 305.183 418.42 219.81 418.42C134.438 418.42 65.2305 422.731 65.2305 428.05C65.2305 433.368 134.438 437.68 219.81 437.68Z" fill="white"/>
<path d="M335.969 61.8599H180.539C169.808 61.8599 161.109 70.559 161.109 81.2899V409.43C161.109 420.161 169.808 428.86 180.539 428.86H335.969C346.7 428.86 355.399 420.161 355.399 409.43V81.2899C355.399 70.559 346.7 61.8599 335.969 61.8599Z" fill="#263238"/>
<path d="M346.76 102.16H169.74V388.56H346.76V102.16Z" fill="white" stroke="#263238" stroke-width="1.34" stroke-miterlimit="10"/>
<path d="M285.385 218.132C300.37 203.147 300.37 178.853 285.385 163.868C270.401 148.884 246.106 148.884 231.122 163.868C216.138 178.853 216.138 203.147 231.122 218.132C246.106 233.116 270.401 233.116 285.385 218.132Z" fill="#337ACC"/>
<path d="M308.63 370.55H207.89C207.663 370.551 207.439 370.507 207.229 370.422C207.019 370.336 206.828 370.209 206.667 370.049C206.507 369.89 206.379 369.7 206.292 369.49C206.205 369.281 206.16 369.056 206.16 368.83C206.159 368.602 206.203 368.377 206.289 368.166C206.376 367.956 206.503 367.764 206.664 367.603C206.825 367.442 207.016 367.315 207.227 367.229C207.437 367.142 207.663 367.098 207.89 367.1H308.63C308.857 367.1 309.081 367.144 309.291 367.232C309.5 367.319 309.69 367.446 309.85 367.607C310.01 367.768 310.136 367.958 310.222 368.168C310.308 368.378 310.352 368.603 310.35 368.83C310.35 369.286 310.169 369.723 309.846 370.046C309.524 370.368 309.086 370.55 308.63 370.55Z" fill="#337ACC"/>
<path d="M311.91 250.94H204.6C202.385 250.94 200.59 252.735 200.59 254.95V267.6C200.59 269.815 202.385 271.61 204.6 271.61H311.91C314.125 271.61 315.92 269.815 315.92 267.6V254.95C315.92 252.735 314.125 250.94 311.91 250.94Z" fill="#337ACC"/>
<path d="M311.91 289.6H204.6C202.385 289.6 200.59 291.395 200.59 293.61V306.26C200.59 308.475 202.385 310.27 204.6 310.27H311.91C314.125 310.27 315.92 308.475 315.92 306.26V293.61C315.92 291.395 314.125 289.6 311.91 289.6Z" fill="#337ACC"/>
<path d="M277.359 210.14L266.069 203.64V198.27C267.703 196.292 268.888 193.982 269.539 191.5C269.927 191.638 270.336 191.709 270.749 191.71C272.149 191.71 273.039 187.37 273.189 184.27C274.819 180.82 272.599 178.8 272.599 178.8C272.599 178.8 273.519 177.88 274.129 174.19C274.739 170.5 271.979 172.04 269.829 168.66C267.679 165.28 266.139 161.6 259.079 161.6C257.133 161.536 255.214 162.059 253.569 163.1C251.925 164.142 250.632 165.654 249.859 167.44C248.101 167.446 246.35 167.651 244.639 168.05C242.479 168.66 241.869 175.73 243.709 178.5C244.532 180.014 244.972 181.707 244.989 183.43C244.499 182.83 243.989 182.67 243.709 184.03C243.099 187.1 245.559 191.4 245.559 191.4L246.829 191.04C247.468 193.692 248.703 196.165 250.439 198.27V203.64L239.149 210.14C237.83 210.901 236.735 211.996 235.973 213.314C235.211 214.632 234.81 216.128 234.809 217.65V221.37C241.523 226.557 249.769 229.371 258.254 229.371C266.739 229.371 274.984 226.557 281.699 221.37V217.65C281.699 216.127 281.299 214.631 280.537 213.312C279.775 211.994 278.678 210.9 277.359 210.14Z" fill="#263238"/>
<path d="M215.199 305.13C214.94 305.126 214.693 305.022 214.509 304.84C214.411 304.752 214.332 304.644 214.279 304.523C214.225 304.403 214.198 304.272 214.199 304.14C214.202 303.96 214.254 303.783 214.349 303.63L216.149 300.75L212.639 300.86C212.507 300.868 212.374 300.849 212.25 300.802C212.126 300.755 212.013 300.683 211.919 300.59C211.756 300.407 211.666 300.17 211.666 299.925C211.666 299.68 211.756 299.443 211.919 299.26C212.011 299.163 212.124 299.088 212.248 299.04C212.372 298.991 212.506 298.971 212.639 298.98L216.099 299.11L214.319 296.24C214.222 296.084 214.17 295.904 214.169 295.72C214.168 295.588 214.195 295.457 214.249 295.337C214.302 295.216 214.381 295.108 214.479 295.02C214.663 294.838 214.91 294.734 215.169 294.73C215.34 294.731 215.506 294.781 215.65 294.873C215.793 294.965 215.907 295.096 215.979 295.25L217.689 298.34L219.379 295.27C219.459 295.106 219.583 294.967 219.736 294.869C219.889 294.77 220.067 294.715 220.249 294.71C220.376 294.711 220.5 294.738 220.616 294.789C220.731 294.841 220.834 294.916 220.919 295.01C221.103 295.2 221.203 295.456 221.199 295.72C221.199 295.892 221.154 296.061 221.069 296.21L219.259 299.11L222.769 298.98C222.902 298.971 223.036 298.991 223.16 299.04C223.285 299.088 223.397 299.163 223.489 299.26C223.66 299.437 223.753 299.674 223.749 299.92C223.749 300.168 223.656 300.407 223.489 300.59C223.395 300.683 223.282 300.755 223.158 300.802C223.034 300.849 222.901 300.868 222.769 300.86L219.239 300.75L220.999 303.6C221.098 303.759 221.15 303.943 221.149 304.13C221.149 304.395 221.044 304.65 220.856 304.837C220.669 305.025 220.414 305.13 220.149 305.13C219.978 305.128 219.811 305.075 219.669 304.979C219.526 304.883 219.415 304.748 219.349 304.59L217.679 301.59L216.019 304.59C215.946 304.747 215.83 304.88 215.685 304.976C215.541 305.071 215.372 305.124 215.199 305.13Z" fill="#263238"/>
<path d="M231.419 305.13C231.16 305.126 230.913 305.022 230.729 304.84C230.631 304.752 230.552 304.644 230.499 304.523C230.445 304.403 230.418 304.272 230.419 304.14C230.422 303.96 230.474 303.783 230.569 303.63L232.369 300.75L228.869 300.86C228.735 300.866 228.602 300.845 228.477 300.799C228.351 300.753 228.236 300.681 228.139 300.59C228.006 300.453 227.918 300.279 227.885 300.091C227.852 299.904 227.877 299.71 227.956 299.536C228.035 299.363 228.164 299.217 228.327 299.118C228.49 299.018 228.678 298.97 228.869 298.98L232.319 299.11L230.539 296.24C230.442 296.084 230.39 295.904 230.389 295.72C230.388 295.588 230.415 295.457 230.469 295.337C230.522 295.216 230.601 295.108 230.699 295.02C230.883 294.838 231.13 294.734 231.389 294.73C231.559 294.731 231.726 294.781 231.869 294.873C232.013 294.965 232.127 295.096 232.199 295.25L233.909 298.34L235.599 295.27C235.679 295.106 235.803 294.967 235.956 294.869C236.109 294.77 236.287 294.715 236.469 294.71C236.596 294.709 236.721 294.736 236.836 294.788C236.952 294.839 237.055 294.915 237.139 295.01C237.232 295.103 237.305 295.214 237.355 295.336C237.405 295.458 237.43 295.588 237.429 295.72C237.425 295.893 237.377 296.061 237.289 296.21L235.479 299.11L238.999 299C239.131 298.991 239.263 299.012 239.386 299.06C239.508 299.108 239.619 299.184 239.709 299.28C239.879 299.457 239.973 299.694 239.969 299.94C239.968 300.188 239.876 300.427 239.709 300.61C239.617 300.703 239.506 300.775 239.383 300.822C239.261 300.868 239.13 300.888 238.999 300.88L235.459 300.77L237.219 303.62C237.318 303.779 237.37 303.963 237.369 304.15C237.369 304.415 237.264 304.67 237.076 304.857C236.889 305.045 236.634 305.15 236.369 305.15C236.198 305.148 236.03 305.095 235.888 304.999C235.746 304.903 235.635 304.768 235.569 304.61L233.899 301.61L232.239 304.61C232.163 304.763 232.046 304.892 231.901 304.984C231.757 305.076 231.59 305.126 231.419 305.13Z" fill="#263238"/>
<path d="M247.649 305.13C247.387 305.129 247.136 305.025 246.949 304.84C246.851 304.752 246.773 304.644 246.719 304.523C246.666 304.403 246.638 304.272 246.639 304.14C246.643 303.96 246.694 303.783 246.789 303.63L248.589 300.75L245.089 300.86C244.901 300.867 244.715 300.819 244.554 300.72C244.393 300.621 244.266 300.477 244.187 300.305C244.109 300.133 244.084 299.942 244.114 299.756C244.145 299.57 244.23 299.397 244.359 299.26C244.454 299.164 244.568 299.089 244.694 299.04C244.82 298.992 244.955 298.972 245.089 298.98L248.539 299.11L246.759 296.24C246.663 296.084 246.611 295.904 246.609 295.72C246.613 295.589 246.642 295.459 246.695 295.339C246.748 295.219 246.824 295.111 246.919 295.02C247.106 294.835 247.357 294.731 247.619 294.73C247.788 294.733 247.953 294.783 248.094 294.875C248.235 294.967 248.348 295.097 248.419 295.25L250.129 298.34L251.819 295.27C251.9 295.106 252.023 294.967 252.176 294.869C252.33 294.77 252.507 294.715 252.689 294.71C252.816 294.709 252.941 294.736 253.057 294.788C253.172 294.839 253.276 294.915 253.359 295.01C253.452 295.103 253.525 295.214 253.575 295.336C253.625 295.458 253.65 295.588 253.649 295.72C253.646 295.893 253.598 296.061 253.509 296.21L251.699 299.11L255.219 298.98C255.349 298.967 255.48 298.982 255.603 299.024C255.726 299.066 255.839 299.133 255.933 299.222C256.028 299.311 256.103 299.42 256.152 299.54C256.201 299.661 256.224 299.79 256.219 299.92C256.222 300.167 256.133 300.405 255.969 300.59C255.875 300.683 255.762 300.755 255.638 300.802C255.514 300.849 255.382 300.868 255.249 300.86L251.719 300.75L253.469 303.6C253.568 303.759 253.62 303.943 253.619 304.13C253.616 304.261 253.587 304.391 253.534 304.511C253.481 304.631 253.405 304.739 253.309 304.83C253.222 304.924 253.117 304.998 253 305.05C252.883 305.102 252.757 305.129 252.629 305.13C252.459 305.127 252.294 305.074 252.154 304.978C252.013 304.882 251.904 304.747 251.839 304.59L250.159 301.59L248.499 304.59C248.425 304.752 248.305 304.889 248.154 304.985C248.003 305.081 247.828 305.131 247.649 305.13Z" fill="#263238"/>
<path d="M263.869 305.13C263.607 305.129 263.356 305.025 263.169 304.84C262.981 304.655 262.873 304.404 262.869 304.14C262.866 303.96 262.915 303.783 263.009 303.63L264.809 300.75L261.309 300.86C261.176 300.866 261.042 300.845 260.917 300.799C260.792 300.753 260.677 300.681 260.579 300.59C260.416 300.407 260.326 300.17 260.326 299.925C260.326 299.68 260.416 299.443 260.579 299.26C260.676 299.167 260.79 299.094 260.916 299.046C261.041 298.998 261.175 298.975 261.309 298.98L264.769 299.11L262.999 296.24C262.902 296.084 262.851 295.904 262.849 295.72C262.852 295.589 262.882 295.459 262.935 295.339C262.988 295.219 263.064 295.111 263.159 295.02C263.346 294.835 263.597 294.731 263.859 294.73C264.03 294.731 264.196 294.781 264.34 294.873C264.483 294.965 264.597 295.096 264.669 295.25L266.369 298.34L268.059 295.27C268.139 295.106 268.263 294.967 268.416 294.869C268.57 294.77 268.747 294.715 268.929 294.71C269.056 294.709 269.181 294.736 269.297 294.788C269.412 294.839 269.515 294.915 269.599 295.01C269.692 295.103 269.765 295.214 269.815 295.336C269.865 295.458 269.89 295.588 269.889 295.72C269.886 295.893 269.838 296.061 269.749 296.21L267.939 299.11L271.459 298.98C271.589 298.967 271.719 298.982 271.843 299.024C271.966 299.066 272.078 299.133 272.173 299.222C272.268 299.311 272.343 299.42 272.392 299.54C272.441 299.661 272.464 299.79 272.459 299.92C272.461 300.167 272.372 300.405 272.209 300.59C272.115 300.683 272.002 300.755 271.878 300.802C271.754 300.849 271.622 300.868 271.489 300.86L267.959 300.75L269.709 303.6C269.808 303.759 269.86 303.943 269.859 304.13C269.86 304.262 269.833 304.393 269.78 304.513C269.726 304.634 269.648 304.742 269.549 304.83C269.462 304.924 269.357 304.998 269.24 305.05C269.123 305.102 268.997 305.129 268.869 305.13C268.699 305.127 268.534 305.074 268.393 304.978C268.253 304.882 268.144 304.747 268.079 304.59L266.399 301.59L264.739 304.59C264.663 304.755 264.54 304.894 264.385 304.99C264.231 305.086 264.051 305.135 263.869 305.13Z" fill="#263238"/>
<path d="M280.09 305.13C279.828 305.129 279.576 305.025 279.39 304.84C279.235 304.683 279.136 304.479 279.109 304.26C279.082 304.042 279.128 303.82 279.24 303.63L281.03 300.75L277.53 300.86C277.396 300.866 277.263 300.845 277.138 300.799C277.012 300.753 276.897 300.681 276.8 300.59C276.637 300.407 276.547 300.17 276.547 299.925C276.547 299.68 276.637 299.443 276.8 299.26C276.897 299.167 277.011 299.094 277.137 299.046C277.262 298.998 277.396 298.975 277.53 298.98L280.99 299.11L279.21 296.24C279.113 296.084 279.061 295.904 279.06 295.72C279.064 295.456 279.172 295.205 279.36 295.02C279.546 294.835 279.798 294.731 280.06 294.73C280.23 294.731 280.397 294.781 280.54 294.873C280.684 294.965 280.798 295.096 280.87 295.25L282.57 298.34L284.26 295.27C284.34 295.106 284.464 294.967 284.617 294.869C284.77 294.77 284.948 294.715 285.13 294.71C285.258 294.709 285.385 294.736 285.502 294.787C285.619 294.839 285.724 294.915 285.81 295.01C285.994 295.2 286.094 295.456 286.09 295.72C286.086 295.893 286.038 296.061 285.95 296.21L284.14 299.11L287.66 298.98C287.789 298.967 287.92 298.982 288.043 299.024C288.166 299.066 288.279 299.133 288.374 299.222C288.469 299.311 288.543 299.42 288.593 299.54C288.642 299.661 288.665 299.79 288.66 299.92C288.662 300.167 288.573 300.405 288.41 300.59C288.316 300.683 288.203 300.755 288.079 300.802C287.955 300.849 287.822 300.868 287.69 300.86L284.16 300.75L285.91 303.6C286.009 303.759 286.061 303.943 286.06 304.13C286.061 304.262 286.034 304.393 285.98 304.513C285.927 304.634 285.848 304.742 285.75 304.83C285.663 304.924 285.558 304.998 285.441 305.05C285.324 305.102 285.198 305.129 285.07 305.13C284.9 305.127 284.735 305.074 284.594 304.978C284.454 304.882 284.345 304.747 284.28 304.59L282.6 301.59L280.94 304.59C280.865 304.752 280.745 304.889 280.594 304.985C280.444 305.081 280.269 305.131 280.09 305.13Z" fill="#263238"/>
<path d="M296.31 305.13C296.051 305.126 295.804 305.022 295.62 304.84C295.522 304.752 295.443 304.644 295.39 304.523C295.336 304.403 295.309 304.272 295.31 304.14C295.313 303.96 295.365 303.783 295.46 303.63L297.25 300.75L293.75 300.86C293.621 300.87 293.492 300.853 293.37 300.81C293.249 300.767 293.137 300.699 293.043 300.61C292.949 300.522 292.874 300.415 292.824 300.296C292.773 300.177 292.748 300.049 292.75 299.92C292.749 299.798 292.773 299.676 292.819 299.563C292.866 299.45 292.934 299.347 293.02 299.26C293.112 299.163 293.224 299.088 293.349 299.04C293.473 298.991 293.607 298.971 293.74 298.98L297.2 299.11L295.42 296.24C295.323 296.084 295.271 295.904 295.27 295.72C295.274 295.456 295.382 295.205 295.57 295.02C295.756 294.835 296.008 294.731 296.27 294.73C296.44 294.731 296.607 294.781 296.75 294.873C296.894 294.965 297.008 295.096 297.08 295.25L298.78 298.34L300.48 295.27C300.559 295.108 300.681 294.97 300.833 294.871C300.984 294.773 301.16 294.717 301.34 294.71C301.468 294.709 301.595 294.736 301.712 294.787C301.829 294.839 301.934 294.915 302.02 295.01C302.204 295.2 302.304 295.456 302.3 295.72C302.3 295.892 302.255 296.061 302.17 296.21L300.36 299.11L303.87 298.98C304.003 298.971 304.137 298.991 304.261 299.04C304.386 299.088 304.498 299.163 304.59 299.26C304.761 299.437 304.854 299.674 304.85 299.92C304.849 300.168 304.757 300.407 304.59 300.59C304.496 300.683 304.383 300.755 304.259 300.802C304.135 300.849 304.002 300.868 303.87 300.86L300.34 300.75L302.09 303.6C302.189 303.759 302.241 303.943 302.24 304.13C302.236 304.394 302.129 304.645 301.94 304.83C301.758 305.016 301.51 305.124 301.25 305.13C301.08 305.127 300.915 305.074 300.774 304.978C300.634 304.882 300.525 304.747 300.46 304.59L298.78 301.59L297.12 304.59C297.048 304.746 296.934 304.879 296.791 304.974C296.648 305.07 296.482 305.124 296.31 305.13Z" fill="#263238"/>
<g style="mix-blend-mode:multiply">
<path d="M346.76 102.54H169.74V113.63H346.76V102.54Z" fill="#337ACC"/>
</g>
<path d="M277.499 82.1096H238.999C238.304 82.1096 237.638 81.8336 237.146 81.3422C236.655 80.8509 236.379 80.1845 236.379 79.4896C236.379 78.7948 236.655 78.1284 237.146 77.637C237.638 77.1457 238.304 76.8696 238.999 76.8696H277.499C278.194 76.8696 278.86 77.1457 279.352 77.637C279.843 78.1284 280.119 78.7948 280.119 79.4896C280.119 80.1845 279.843 80.8509 279.352 81.3422C278.86 81.8336 278.194 82.1096 277.499 82.1096Z" fill="#337ACC" stroke="#263238" stroke-width="1.34" stroke-linecap="round" stroke-linejoin="round"/>
<path d="M268.75 404.74C268.752 402.662 268.138 400.631 266.985 398.903C265.832 397.174 264.192 395.827 262.273 395.031C260.354 394.235 258.242 394.026 256.204 394.431C254.166 394.836 252.294 395.836 250.825 397.305C249.356 398.774 248.356 400.646 247.951 402.684C247.546 404.722 247.755 406.834 248.551 408.753C249.347 410.672 250.694 412.312 252.423 413.465C254.151 414.618 256.182 415.232 258.26 415.23C261.041 415.227 263.708 414.121 265.675 412.155C267.641 410.188 268.747 407.521 268.75 404.74Z" fill="#337ACC"/>
<path d="M263.579 399.42H252.939V410.06H263.579V399.42Z" fill="#337ACC" stroke="#263238" stroke-width="1.34" stroke-linecap="round" stroke-linejoin="round"/>
<path d="M385 284C385 284 371.06 248.58 383.47 244.37C396.39 239.98 395.82 263.37 395.32 274.77C394.27 299.13 391.58 303.66 389.57 297.71L385 284ZM380.81 311.63C384.64 316.63 385.72 311.45 378.81 288.06C375.57 277.06 368.53 254.81 357.73 263.16C347.36 271.16 372.04 300.16 372.04 300.16L380.81 311.63ZM373.41 331.93C377.06 335.17 377.13 331.08 368.46 314.19C364.39 306.28 355.78 290.27 348.73 298.19C341.96 305.83 365.03 324.4 365.03 324.4L373.41 331.93ZM365.41 356.07C369.06 359.32 369.13 355.22 360.46 338.34C356.39 330.43 347.78 314.41 340.73 322.34C334 330 357 348.57 357 348.57L365.41 356.07ZM388.51 306.93C382.67 309.21 387.31 311.69 411.7 311.62C423.14 311.62 446.5 311.1 441.52 298.39C436.75 286.18 402.01 301.73 402.01 301.73L388.51 306.93ZM381.86 323.17C375.68 324.24 379.74 327.6 403.66 332.38C414.87 334.63 437.86 338.78 435.51 325.38C433.26 312.46 396.12 320.8 396.12 320.8L381.86 323.17ZM374.42 343C369.16 343.76 372.52 346.69 392.63 351.29C402.06 353.45 421.41 357.5 419.73 346.07C418.12 335.07 386.53 341.29 386.53 341.29L374.42 343ZM368.77 361.37C363.62 362.68 367.27 365.24 387.77 367.68C397.37 368.82 417.04 370.8 414.17 359.61C411.4 348.87 380.64 358.38 380.64 358.38L368.77 361.37ZM398.91 287C395.91 293.72 402.14 292.7 423.32 274.22C433.24 265.55 453.14 247.41 437.38 238.38C422.25 229.7 405.98 271.58 405.98 271.58L398.91 287ZM369.55 385.3C366.38 387.15 369.49 387.87 384.03 384.97C390.85 383.62 404.72 380.62 400.03 374.7C395.49 369 376.89 381 376.89 381L369.55 385.3Z" fill="#337ACC"/>
<path opacity="0.3" d="M385 284C385 284 371.06 248.58 383.47 244.37C396.39 239.98 395.82 263.37 395.32 274.77C394.27 299.13 391.58 303.66 389.57 297.71L385 284ZM380.81 311.63C384.64 316.63 385.72 311.45 378.81 288.06C375.57 277.06 368.53 254.81 357.73 263.16C347.36 271.16 372.04 300.16 372.04 300.16L380.81 311.63ZM373.41 331.93C377.06 335.17 377.13 331.08 368.46 314.19C364.39 306.28 355.78 290.27 348.73 298.19C341.96 305.83 365.03 324.4 365.03 324.4L373.41 331.93ZM365.41 356.07C369.06 359.32 369.13 355.22 360.46 338.34C356.39 330.43 347.78 314.41 340.73 322.34C334 330 357 348.57 357 348.57L365.41 356.07ZM388.51 306.93C382.67 309.21 387.31 311.69 411.7 311.62C423.14 311.62 446.5 311.1 441.52 298.39C436.75 286.18 402.01 301.73 402.01 301.73L388.51 306.93ZM381.86 323.17C375.68 324.24 379.74 327.6 403.66 332.38C414.87 334.63 437.86 338.78 435.51 325.38C433.26 312.46 396.12 320.8 396.12 320.8L381.86 323.17ZM374.42 343C369.16 343.76 372.52 346.69 392.63 351.29C402.06 353.45 421.41 357.5 419.73 346.07C418.12 335.07 386.53 341.29 386.53 341.29L374.42 343ZM368.77 361.37C363.62 362.68 367.27 365.24 387.77 367.68C397.37 368.82 417.04 370.8 414.17 359.61C411.4 348.87 380.64 358.38 380.64 358.38L368.77 361.37ZM398.91 287C395.91 293.72 402.14 292.7 423.32 274.22C433.24 265.55 453.14 247.41 437.38 238.38C422.25 229.7 405.98 271.58 405.98 271.58L398.91 287ZM369.55 385.3C366.38 387.15 369.49 387.87 384.03 384.97C390.85 383.62 404.72 380.62 400.03 374.7C395.49 369 376.89 381 376.89 381L369.55 385.3Z" fill="white"/>
<path d="M391.15 300.49L388.72 260.06L391.15 300.49ZM383.46 313.83L368.1 279.06L383.46 313.83ZM423.1 303.72L386.29 309L423.1 303.72ZM375.5 332.57L355.57 307L375.5 332.57ZM379 324.73L406.46 326.11L379 324.73ZM372.5 344.34L393.5 346.42L372.5 344.34ZM367.43 356.8L357 341.11L367.43 356.8ZM366.23 362.34L390.92 362.57L366.23 362.34ZM361.23 408.66C361.395 408.647 361.549 408.569 361.657 408.444C361.766 408.319 361.821 408.155 361.81 407.99C360.24 384.41 369.36 345.79 383.99 314.09C393.34 293.83 429.99 254.01 430.38 253.61C430.498 253.492 430.564 253.332 430.564 253.165C430.564 252.998 430.498 252.838 430.38 252.72C430.322 252.662 430.254 252.616 430.178 252.584C430.103 252.553 430.022 252.537 429.94 252.537C429.858 252.537 429.777 252.553 429.701 252.584C429.626 252.616 429.557 252.662 429.5 252.72C429.13 253.12 392.33 293.09 382.9 313.53C368 346 359 383.92 360.6 408.07C360.61 408.23 360.681 408.38 360.798 408.49C360.915 408.599 361.069 408.66 361.23 408.66ZM391.14 301.11C391.305 301.099 391.46 301.024 391.57 300.901C391.681 300.777 391.738 300.615 391.73 300.45L389.34 260C389.336 259.917 389.316 259.837 389.28 259.762C389.245 259.688 389.195 259.621 389.134 259.566C389.072 259.511 389 259.469 388.922 259.442C388.845 259.415 388.762 259.404 388.68 259.41C388.514 259.42 388.36 259.495 388.249 259.619C388.139 259.742 388.082 259.904 388.09 260.07L390.52 300.5C390.527 300.659 390.596 300.809 390.712 300.919C390.827 301.029 390.98 301.09 391.14 301.09V301.11ZM383.68 314.4C383.83 314.332 383.947 314.208 384.007 314.055C384.066 313.902 384.064 313.731 384 313.58L368.63 278.81C368.563 278.659 368.44 278.54 368.286 278.48C368.132 278.42 367.961 278.424 367.81 278.49C367.659 278.556 367.54 278.68 367.48 278.834C367.42 278.987 367.423 279.159 367.49 279.31L382.85 314.08C382.898 314.191 382.977 314.287 383.079 314.354C383.18 314.421 383.298 314.458 383.42 314.46C383.523 314.465 383.626 314.445 383.72 314.4H383.68ZM386.34 309.6L423.13 304.34C423.219 304.338 423.306 304.317 423.386 304.279C423.467 304.241 423.538 304.187 423.596 304.119C423.653 304.052 423.696 303.973 423.721 303.887C423.746 303.802 423.753 303.712 423.741 303.624C423.729 303.536 423.698 303.452 423.651 303.376C423.604 303.301 423.542 303.236 423.468 303.187C423.394 303.137 423.311 303.104 423.223 303.089C423.136 303.074 423.046 303.078 422.96 303.1L386.17 308.36C386.087 308.37 386.007 308.396 385.935 308.437C385.863 308.479 385.799 308.534 385.749 308.6C385.699 308.666 385.662 308.742 385.642 308.823C385.621 308.904 385.617 308.988 385.63 309.07C385.653 309.217 385.729 309.352 385.842 309.449C385.956 309.546 386.1 309.599 386.25 309.6H386.34ZM375.85 333.07C375.98 332.967 376.065 332.817 376.086 332.652C376.106 332.488 376.061 332.321 375.96 332.19L356.02 306.57C355.918 306.437 355.767 306.351 355.601 306.329C355.435 306.307 355.267 306.353 355.135 306.455C355.002 306.557 354.916 306.708 354.894 306.874C354.872 307.039 354.918 307.207 355.02 307.34L375 333C375.058 333.075 375.132 333.135 375.217 333.177C375.302 333.218 375.395 333.24 375.49 333.24C375.639 333.232 375.781 333.172 375.89 333.07H375.85ZM407.01 326.14C407.015 325.974 406.955 325.813 406.843 325.692C406.731 325.57 406.575 325.498 406.41 325.49L379 324.1C378.846 324.11 378.701 324.177 378.593 324.288C378.485 324.398 378.421 324.544 378.414 324.698C378.406 324.852 378.456 325.004 378.553 325.124C378.65 325.244 378.787 325.325 378.94 325.35L406.4 326.74C406.565 326.745 406.726 326.685 406.848 326.573C406.969 326.461 407.042 326.305 407.05 326.14H407.01ZM394.08 346.48C394.089 346.398 394.083 346.314 394.059 346.235C394.036 346.155 393.998 346.081 393.945 346.017C393.893 345.952 393.829 345.899 393.756 345.86C393.682 345.821 393.602 345.797 393.52 345.79L372.52 343.72C372.438 343.712 372.356 343.719 372.278 343.743C372.199 343.767 372.126 343.806 372.063 343.858C372 343.91 371.947 343.974 371.909 344.047C371.871 344.119 371.847 344.198 371.84 344.28C371.826 344.444 371.876 344.607 371.981 344.734C372.086 344.861 372.236 344.942 372.4 344.96L393.4 347.04H393.46C393.621 347.051 393.78 346.999 393.904 346.894C394.027 346.789 394.104 346.641 394.12 346.48H394.08ZM367.73 357.32C367.869 357.228 367.965 357.085 367.999 356.922C368.033 356.759 368.001 356.589 367.91 356.45L357.53 340.76C357.435 340.625 357.291 340.532 357.129 340.5C356.967 340.468 356.799 340.5 356.66 340.59C356.521 340.682 356.424 340.825 356.39 340.988C356.357 341.151 356.389 341.32 356.48 341.46L366.86 357.15C366.919 357.236 366.998 357.306 367.091 357.355C367.183 357.403 367.285 357.429 367.39 357.43C367.525 357.437 367.659 357.398 367.77 357.32H367.73ZM391.55 362.57C391.547 362.405 391.481 362.248 391.366 362.131C391.251 362.013 391.094 361.945 390.93 361.94L366.24 361.71C366.075 361.71 365.918 361.775 365.801 361.891C365.685 362.008 365.62 362.165 365.62 362.33C365.617 362.412 365.631 362.495 365.661 362.572C365.691 362.649 365.737 362.719 365.795 362.778C365.853 362.837 365.922 362.883 365.998 362.915C366.075 362.946 366.157 362.961 366.24 362.96L390.93 363.19C391.014 363.194 391.098 363.181 391.178 363.152C391.257 363.122 391.33 363.078 391.391 363.02C391.453 362.962 391.502 362.892 391.536 362.815C391.57 362.738 391.588 362.654 391.59 362.57H391.55ZM358.42 399.49C358.47 399.38 362.68 387.78 375.34 385.01C375.503 384.974 375.645 384.875 375.735 384.734C375.825 384.594 375.855 384.423 375.82 384.26C375.779 384.1 375.679 383.962 375.539 383.874C375.399 383.787 375.231 383.756 375.07 383.79C361.72 386.71 357.29 398.96 357.24 399.08C357.188 399.238 357.2 399.409 357.273 399.559C357.346 399.708 357.474 399.823 357.63 399.88H357.83C357.963 399.891 358.096 399.86 358.209 399.789C358.323 399.719 358.411 399.614 358.46 399.49H358.42ZM361.23 408.66C361.395 408.647 361.549 408.569 361.657 408.444C361.766 408.319 361.821 408.155 361.81 407.99C360.24 384.41 369.36 345.79 383.99 314.09C393.34 293.83 429.99 254.01 430.38 253.61C430.498 253.492 430.564 253.332 430.564 253.165C430.564 252.998 430.498 252.838 430.38 252.72C430.322 252.662 430.254 252.616 430.178 252.584C430.103 252.553 430.022 252.537 429.94 252.537C429.858 252.537 429.777 252.553 429.701 252.584C429.626 252.616 429.557 252.662 429.5 252.72C429.13 253.12 392.33 293.09 382.9 313.53C368 346 359 383.92 360.6 408.07C360.61 408.23 360.681 408.38 360.798 408.49C360.915 408.599 361.069 408.66 361.23 408.66ZM391.14 301.11C391.305 301.099 391.46 301.024 391.57 300.901C391.681 300.777 391.738 300.615 391.73 300.45L389.34 260C389.336 259.917 389.316 259.837 389.28 259.762C389.245 259.688 389.195 259.621 389.134 259.566C389.072 259.511 389 259.469 388.922 259.442C388.845 259.415 388.762 259.404 388.68 259.41C388.514 259.42 388.36 259.495 388.249 259.619C388.139 259.742 388.082 259.904 388.09 260.07L390.52 300.5C390.527 300.659 390.596 300.809 390.712 300.919C390.827 301.029 390.98 301.09 391.14 301.09V301.11ZM383.68 314.4C383.83 314.332 383.947 314.208 384.007 314.055C384.066 313.902 384.064 313.731 384 313.58L368.63 278.81C368.563 278.659 368.44 278.54 368.286 278.48C368.132 278.42 367.961 278.424 367.81 278.49C367.659 278.556 367.54 278.68 367.48 278.834C367.42 278.987 367.423 279.159 367.49 279.31L382.85 314.08C382.898 314.191 382.977 314.287 383.079 314.354C383.18 314.421 383.298 314.458 383.42 314.46C383.523 314.465 383.626 314.445 383.72 314.4H383.68ZM386.34 309.6L423.13 304.34C423.219 304.338 423.306 304.317 423.386 304.279C423.467 304.241 423.538 304.187 423.596 304.119C423.653 304.052 423.696 303.973 423.721 303.887C423.746 303.802 423.753 303.712 423.741 303.624C423.729 303.536 423.698 303.452 423.651 303.376C423.604 303.301 423.542 303.236 423.468 303.187C423.394 303.137 423.311 303.104 423.223 303.089C423.136 303.074 423.046 303.078 422.96 303.1L386.17 308.36C386.087 308.37 386.007 308.396 385.935 308.437C385.863 308.479 385.799 308.534 385.749 308.6C385.699 308.666 385.662 308.742 385.642 308.823C385.621 308.904 385.617 308.988 385.63 309.07C385.653 309.217 385.729 309.352 385.842 309.449C385.956 309.546 386.1 309.599 386.25 309.6H386.34ZM375.85 333.07C375.98 332.967 376.065 332.817 376.086 332.652C376.106 332.488 376.061 332.321 375.96 332.19L356.02 306.57C355.969 306.504 355.906 306.449 355.834 306.408C355.762 306.366 355.683 306.34 355.601 306.329C355.519 306.318 355.435 306.324 355.355 306.346C355.275 306.367 355.2 306.404 355.135 306.455C355.069 306.505 355.014 306.568 354.973 306.64C354.931 306.712 354.905 306.791 354.894 306.874C354.883 306.956 354.889 307.039 354.91 307.119C354.932 307.199 354.969 307.274 355.02 307.34L375 333C375.058 333.075 375.132 333.135 375.217 333.177C375.302 333.218 375.395 333.24 375.49 333.24C375.639 333.232 375.781 333.172 375.89 333.07H375.85ZM407.01 326.14C407.015 325.974 406.955 325.813 406.843 325.692C406.731 325.57 406.575 325.498 406.41 325.49L379 324.1C378.846 324.11 378.701 324.177 378.593 324.288C378.485 324.398 378.421 324.544 378.414 324.698C378.406 324.852 378.456 325.004 378.553 325.124C378.65 325.244 378.787 325.325 378.94 325.35L406.4 326.74C406.565 326.745 406.726 326.685 406.848 326.573C406.969 326.461 407.042 326.305 407.05 326.14H407.01ZM394.08 346.48C394.089 346.398 394.083 346.314 394.059 346.235C394.036 346.155 393.998 346.081 393.945 346.017C393.893 345.952 393.829 345.899 393.756 345.86C393.682 345.821 393.602 345.797 393.52 345.79L372.52 343.72C372.438 343.712 372.356 343.719 372.278 343.743C372.199 343.767 372.126 343.806 372.063 343.858C372 343.91 371.947 343.974 371.909 344.047C371.871 344.119 371.847 344.198 371.84 344.28C371.826 344.444 371.876 344.607 371.981 344.734C372.086 344.861 372.236 344.942 372.4 344.96L393.4 347.04H393.46C393.621 347.051 393.78 346.999 393.904 346.894C394.027 346.789 394.104 346.641 394.12 346.48H394.08ZM367.73 357.32C367.869 357.228 367.965 357.085 367.999 356.922C368.033 356.759 368.001 356.589 367.91 356.45L357.53 340.76C357.435 340.625 357.291 340.532 357.129 340.5C356.967 340.468 356.799 340.5 356.66 340.59C356.521 340.682 356.424 340.825 356.39 340.988C356.357 341.151 356.389 341.32 356.48 341.46L366.86 357.15C366.919 357.236 366.998 357.306 367.091 357.355C367.183 357.403 367.285 357.429 367.39 357.43C367.525 357.437 367.659 357.398 367.77 357.32H367.73ZM391.55 362.57C391.547 362.405 391.481 362.248 391.366 362.131C391.251 362.013 391.094 361.945 390.93 361.94L366.24 361.71C366.075 361.71 365.918 361.775 365.801 361.891C365.685 362.008 365.62 362.165 365.62 362.33C365.617 362.412 365.631 362.495 365.661 362.572C365.691 362.649 365.737 362.719 365.795 362.778C365.853 362.837 365.922 362.883 365.998 362.915C366.075 362.946 366.157 362.961 366.24 362.96L390.93 363.19C391.014 363.194 391.098 363.181 391.178 363.152C391.257 363.122 391.33 363.078 391.391 363.02C391.453 362.962 391.502 362.892 391.536 362.815C391.57 362.738 391.588 362.654 391.59 362.57H391.55ZM358.42 399.49C358.47 399.38 362.68 387.78 375.34 385.01C375.503 384.974 375.645 384.875 375.735 384.734C375.825 384.594 375.855 384.423 375.82 384.26C375.779 384.1 375.679 383.962 375.539 383.874C375.399 383.787 375.231 383.756 375.07 383.79C361.72 386.71 357.29 398.96 357.24 399.08C357.188 399.238 357.2 399.409 357.273 399.559C357.346 399.708 357.474 399.823 357.63 399.88H357.83C357.963 399.891 358.096 399.86 358.209 399.789C358.323 399.719 358.411 399.614 358.46 399.49H358.42Z" fill="#337ACC"/>
<path opacity="0.2" d="M391.15 300.49L388.72 260.06L391.15 300.49ZM383.46 313.83L368.1 279.06L383.46 313.83ZM423.1 303.72L386.29 309L423.1 303.72ZM375.5 332.57L355.57 307L375.5 332.57ZM379 324.73L406.46 326.11L379 324.73ZM372.5 344.34L393.5 346.42L372.5 344.34ZM367.43 356.8L357 341.11L367.43 356.8ZM366.23 362.34L390.92 362.57L366.23 362.34ZM361.23 408.66C361.395 408.647 361.549 408.569 361.657 408.444C361.766 408.319 361.821 408.155 361.81 407.99C360.24 384.41 369.36 345.79 383.99 314.09C393.34 293.83 429.99 254.01 430.38 253.61C430.498 253.492 430.564 253.332 430.564 253.165C430.564 252.998 430.498 252.838 430.38 252.72C430.322 252.662 430.254 252.616 430.178 252.584C430.103 252.553 430.022 252.537 429.94 252.537C429.858 252.537 429.777 252.553 429.701 252.584C429.626 252.616 429.557 252.662 429.5 252.72C429.13 253.12 392.33 293.09 382.9 313.53C368 346 359 383.92 360.6 408.07C360.61 408.23 360.681 408.38 360.798 408.49C360.915 408.599 361.069 408.66 361.23 408.66ZM391.14 301.11C391.305 301.099 391.46 301.024 391.57 300.901C391.681 300.777 391.738 300.615 391.73 300.45L389.34 260C389.336 259.917 389.316 259.837 389.28 259.762C389.245 259.688 389.195 259.621 389.134 259.566C389.072 259.511 389 259.469 388.922 259.442C388.845 259.415 388.762 259.404 388.68 259.41C388.514 259.42 388.36 259.495 388.249 259.619C388.139 259.742 388.082 259.904 388.09 260.07L390.52 300.5C390.527 300.659 390.596 300.809 390.712 300.919C390.827 301.029 390.98 301.09 391.14 301.09V301.11ZM383.68 314.4C383.83 314.332 383.947 314.208 384.007 314.055C384.066 313.902 384.064 313.731 384 313.58L368.63 278.81C368.563 278.659 368.44 278.54 368.286 278.48C368.132 278.42 367.961 278.424 367.81 278.49C367.659 278.556 367.54 278.68 367.48 278.834C367.42 278.987 367.423 279.159 367.49 279.31L382.85 314.08C382.898 314.191 382.977 314.287 383.079 314.354C383.18 314.421 383.298 314.458 383.42 314.46C383.523 314.465 383.626 314.445 383.72 314.4H383.68ZM386.34 309.6L423.13 304.34C423.219 304.338 423.306 304.317 423.386 304.279C423.467 304.241 423.538 304.187 423.596 304.119C423.653 304.052 423.696 303.973 423.721 303.887C423.746 303.802 423.753 303.712 423.741 303.624C423.729 303.536 423.698 303.452 423.651 303.376C423.604 303.301 423.542 303.236 423.468 303.187C423.394 303.137 423.311 303.104 423.223 303.089C423.136 303.074 423.046 303.078 422.96 303.1L386.17 308.36C386.087 308.37 386.007 308.396 385.935 308.437C385.863 308.479 385.799 308.534 385.749 308.6C385.699 308.666 385.662 308.742 385.642 308.823C385.621 308.904 385.617 308.988 385.63 309.07C385.653 309.217 385.729 309.352 385.842 309.449C385.956 309.546 386.1 309.599 386.25 309.6H386.34ZM375.85 333.07C375.98 332.967 376.065 332.817 376.086 332.652C376.106 332.488 376.061 332.321 375.96 332.19L356.02 306.57C355.918 306.437 355.767 306.351 355.601 306.329C355.435 306.307 355.267 306.353 355.135 306.455C355.002 306.557 354.916 306.708 354.894 306.874C354.872 307.039 354.918 307.207 355.02 307.34L375 333C375.058 333.075 375.132 333.135 375.217 333.177C375.302 333.218 375.395 333.24 375.49 333.24C375.639 333.232 375.781 333.172 375.89 333.07H375.85ZM407.01 326.14C407.015 325.974 406.955 325.813 406.843 325.692C406.731 325.57 406.575 325.498 406.41 325.49L379 324.1C378.846 324.11 378.701 324.177 378.593 324.288C378.485 324.398 378.421 324.544 378.414 324.698C378.406 324.852 378.456 325.004 378.553 325.124C378.65 325.244 378.787 325.325 378.94 325.35L406.4 326.74C406.565 326.745 406.726 326.685 406.848 326.573C406.969 326.461 407.042 326.305 407.05 326.14H407.01ZM394.08 346.48C394.089 346.398 394.083 346.314 394.059 346.235C394.036 346.155 393.998 346.081 393.945 346.017C393.893 345.952 393.829 345.899 393.756 345.86C393.682 345.821 393.602 345.797 393.52 345.79L372.52 343.72C372.438 343.712 372.356 343.719 372.278 343.743C372.199 343.767 372.126 343.806 372.063 343.858C372 343.91 371.947 343.974 371.909 344.047C371.871 344.119 371.847 344.198 371.84 344.28C371.826 344.444 371.876 344.607 371.981 344.734C372.086 344.861 372.236 344.942 372.4 344.96L393.4 347.04H393.46C393.621 347.051 393.78 346.999 393.904 346.894C394.027 346.789 394.104 346.641 394.12 346.48H394.08ZM367.73 357.32C367.869 357.228 367.965 357.085 367.999 356.922C368.033 356.759 368.001 356.589 367.91 356.45L357.53 340.76C357.435 340.625 357.291 340.532 357.129 340.5C356.967 340.468 356.799 340.5 356.66 340.59C356.521 340.682 356.424 340.825 356.39 340.988C356.357 341.151 356.389 341.32 356.48 341.46L366.86 357.15C366.919 357.236 366.998 357.306 367.091 357.355C367.183 357.403 367.285 357.429 367.39 357.43C367.525 357.437 367.659 357.398 367.77 357.32H367.73ZM391.55 362.57C391.547 362.405 391.481 362.248 391.366 362.131C391.251 362.013 391.094 361.945 390.93 361.94L366.24 361.71C366.075 361.71 365.918 361.775 365.801 361.891C365.685 362.008 365.62 362.165 365.62 362.33C365.617 362.412 365.631 362.495 365.661 362.572C365.691 362.649 365.737 362.719 365.795 362.778C365.853 362.837 365.922 362.883 365.998 362.915C366.075 362.946 366.157 362.961 366.24 362.96L390.93 363.19C391.014 363.194 391.098 363.181 391.178 363.152C391.257 363.122 391.33 363.078 391.391 363.02C391.453 362.962 391.502 362.892 391.536 362.815C391.57 362.738 391.588 362.654 391.59 362.57H391.55ZM358.42 399.49C358.47 399.38 362.68 387.78 375.34 385.01C375.503 384.974 375.645 384.875 375.735 384.734C375.825 384.594 375.855 384.423 375.82 384.26C375.779 384.1 375.679 383.962 375.539 383.874C375.399 383.787 375.231 383.756 375.07 383.79C361.72 386.71 357.29 398.96 357.24 399.08C357.188 399.238 357.2 399.409 357.273 399.559C357.346 399.708 357.474 399.823 357.63 399.88H357.83C357.963 399.891 358.096 399.86 358.209 399.789C358.323 399.719 358.411 399.614 358.46 399.49H358.42ZM361.23 408.66C361.395 408.647 361.549 408.569 361.657 408.444C361.766 408.319 361.821 408.155 361.81 407.99C360.24 384.41 369.36 345.79 383.99 314.09C393.34 293.83 429.99 254.01 430.38 253.61C430.498 253.492 430.564 253.332 430.564 253.165C430.564 252.998 430.498 252.838 430.38 252.72C430.322 252.662 430.254 252.616 430.178 252.584C430.103 252.553 430.022 252.537 429.94 252.537C429.858 252.537 429.777 252.553 429.701 252.584C429.626 252.616 429.557 252.662 429.5 252.72C429.13 253.12 392.33 293.09 382.9 313.53C368 346 359 383.92 360.6 408.07C360.61 408.23 360.681 408.38 360.798 408.49C360.915 408.599 361.069 408.66 361.23 408.66ZM391.14 301.11C391.305 301.099 391.46 301.024 391.57 300.901C391.681 300.777 391.738 300.615 391.73 300.45L389.34 260C389.336 259.917 389.316 259.837 389.28 259.762C389.245 259.688 389.195 259.621 389.134 259.566C389.072 259.511 389 259.469 388.922 259.442C388.845 259.415 388.762 259.404 388.68 259.41C388.514 259.42 388.36 259.495 388.249 259.619C388.139 259.742 388.082 259.904 388.09 260.07L390.52 300.5C390.527 300.659 390.596 300.809 390.712 300.919C390.827 301.029 390.98 301.09 391.14 301.09V301.11ZM383.68 314.4C383.83 314.332 383.947 314.208 384.007 314.055C384.066 313.902 384.064 313.731 384 313.58L368.63 278.81C368.563 278.659 368.44 278.54 368.286 278.48C368.132 278.42 367.961 278.424 367.81 278.49C367.659 278.556 367.54 278.68 367.48 278.834C367.42 278.987 367.423 279.159 367.49 279.31L382.85 314.08C382.898 314.191 382.977 314.287 383.079 314.354C383.18 314.421 383.298 314.458 383.42 314.46C383.523 314.465 383.626 314.445 383.72 314.4H383.68ZM386.34 309.6L423.13 304.34C423.219 304.338 423.306 304.317 423.386 304.279C423.467 304.241 423.538 304.187 423.596 304.119C423.653 304.052 423.696 303.973 423.721 303.887C423.746 303.802 423.753 303.712 423.741 303.624C423.729 303.536 423.698 303.452 423.651 303.376C423.604 303.301 423.542 303.236 423.468 303.187C423.394 303.137 423.311 303.104 423.223 303.089C423.136 303.074 423.046 303.078 422.96 303.1L386.17 308.36C386.087 308.37 386.007 308.396 385.935 308.437C385.863 308.479 385.799 308.534 385.749 308.6C385.699 308.666 385.662 308.742 385.642 308.823C385.621 308.904 385.617 308.988 385.63 309.07C385.653 309.217 385.729 309.352 385.842 309.449C385.956 309.546 386.1 309.599 386.25 309.6H386.34ZM375.85 333.07C375.98 332.967 376.065 332.817 376.086 332.652C376.106 332.488 376.061 332.321 375.96 332.19L356.02 306.57C355.969 306.504 355.906 306.449 355.834 306.408C355.762 306.366 355.683 306.34 355.601 306.329C355.519 306.318 355.435 306.324 355.355 306.346C355.275 306.367 355.2 306.404 355.135 306.455C355.069 306.505 355.014 306.568 354.973 306.64C354.931 306.712 354.905 306.791 354.894 306.874C354.883 306.956 354.889 307.039 354.91 307.119C354.932 307.199 354.969 307.274 355.02 307.34L375 333C375.058 333.075 375.132 333.135 375.217 333.177C375.302 333.218 375.395 333.24 375.49 333.24C375.639 333.232 375.781 333.172 375.89 333.07H375.85ZM407.01 326.14C407.015 325.974 406.955 325.813 406.843 325.692C406.731 325.57 406.575 325.498 406.41 325.49L379 324.1C378.846 324.11 378.701 324.177 378.593 324.288C378.485 324.398 378.421 324.544 378.414 324.698C378.406 324.852 378.456 325.004 378.553 325.124C378.65 325.244 378.787 325.325 378.94 325.35L406.4 326.74C406.565 326.745 406.726 326.685 406.848 326.573C406.969 326.461 407.042 326.305 407.05 326.14H407.01ZM394.08 346.48C394.089 346.398 394.083 346.314 394.059 346.235C394.036 346.155 393.998 346.081 393.945 346.017C393.893 345.952 393.829 345.899 393.756 345.86C393.682 345.821 393.602 345.797 393.52 345.79L372.52 343.72C372.438 343.712 372.356 343.719 372.278 343.743C372.199 343.767 372.126 343.806 372.063 343.858C372 343.91 371.947 343.974 371.909 344.047C371.871 344.119 371.847 344.198 371.84 344.28C371.826 344.444 371.876 344.607 371.981 344.734C372.086 344.861 372.236 344.942 372.4 344.96L393.4 347.04H393.46C393.621 347.051 393.78 346.999 393.904 346.894C394.027 346.789 394.104 346.641 394.12 346.48H394.08ZM367.73 357.32C367.869 357.228 367.965 357.085 367.999 356.922C368.033 356.759 368.001 356.589 367.91 356.45L357.53 340.76C357.435 340.625 357.291 340.532 357.129 340.5C356.967 340.468 356.799 340.5 356.66 340.59C356.521 340.682 356.424 340.825 356.39 340.988C356.357 341.151 356.389 341.32 356.48 341.46L366.86 357.15C366.919 357.236 366.998 357.306 367.091 357.355C367.183 357.403 367.285 357.429 367.39 357.43C367.525 357.437 367.659 357.398 367.77 357.32H367.73ZM391.55 362.57C391.547 362.405 391.481 362.248 391.366 362.131C391.251 362.013 391.094 361.945 390.93 361.94L366.24 361.71C366.075 361.71 365.918 361.775 365.801 361.891C365.685 362.008 365.62 362.165 365.62 362.33C365.617 362.412 365.631 362.495 365.661 362.572C365.691 362.649 365.737 362.719 365.795 362.778C365.853 362.837 365.922 362.883 365.998 362.915C366.075 362.946 366.157 362.961 366.24 362.96L390.93 363.19C391.014 363.194 391.098 363.181 391.178 363.152C391.257 363.122 391.33 363.078 391.391 363.02C391.453 362.962 391.502 362.892 391.536 362.815C391.57 362.738 391.588 362.654 391.59 362.57H391.55ZM358.42 399.49C358.47 399.38 362.68 387.78 375.34 385.01C375.503 384.974 375.645 384.875 375.735 384.734C375.825 384.594 375.855 384.423 375.82 384.26C375.779 384.1 375.679 383.962 375.539 383.874C375.399 383.787 375.231 383.756 375.07 383.79C361.72 386.71 357.29 398.96 357.24 399.08C357.188 399.238 357.2 399.409 357.273 399.559C357.346 399.708 357.474 399.823 357.63 399.88H357.83C357.963 399.891 358.096 399.86 358.209 399.789C358.323 399.719 358.411 399.614 358.46 399.49H358.42Z" fill="black"/>
<path d="M377.56 391.03H349.25V396.89H351.72L356.83 428.86H369.98L375.09 396.89H377.56V391.03Z" fill="#337ACC"/>
<path opacity="0.3" d="M377.56 391.03H349.25V396.89H351.72L356.83 428.86H369.98L375.09 396.89H377.56V391.03Z" fill="white"/>
<path d="M122.682 213.83L89.7522 203.08L86.8222 195.34L80.1322 195.13L67.9922 192.83L69.4522 195.34L84.7322 206.43L88.5022 208.31L122.942 226.3L122.682 213.83Z" fill="white" stroke="#263238" stroke-miterlimit="10"/>
<path d="M86.8221 195.34L83.6821 193.46L77.4121 195.76L78.4521 197.01L86.8221 195.34Z" fill="white" stroke="#263238" stroke-linejoin="round"/>
<path d="M122.682 213.83L89.7522 203.08L86.8222 195.34L80.1322 195.13L67.9922 192.83L69.4522 195.34L84.7322 206.43L88.5022 208.31L122.942 226.3L122.682 213.83Z" fill="white"/>
<path opacity="0.5" d="M122.682 213.83L89.7522 203.08L86.8222 195.34L80.1322 195.13L67.9922 192.83L69.4522 195.34L84.7322 206.43L88.5022 208.31L122.942 226.3L122.682 213.83Z" fill="#337ACC" stroke="#263238" stroke-miterlimit="10"/>
<path d="M122.682 213.83L89.7522 203.08L86.8222 195.34L80.1322 195.13L67.9922 192.83L69.4522 195.34L84.7322 206.43L88.5022 208.31L122.942 226.3L122.682 213.83Z" stroke="#263238" stroke-miterlimit="10"/>
<path d="M86.8221 195.34L83.6821 193.46L77.4121 195.76L78.4521 197.01L86.8221 195.34Z" fill="white"/>
<path opacity="0.5" d="M86.8221 195.34L83.6821 193.46L77.4121 195.76L78.4521 197.01L86.8221 195.34Z" fill="#337ACC" stroke="#263238" stroke-linejoin="round"/>
<path d="M86.8221 195.34L83.6821 193.46L77.4121 195.76L78.4521 197.01L86.8221 195.34Z" stroke="#263238" stroke-linejoin="round"/>
<path d="M129.672 144.06C129.672 144.06 129.162 148.56 130.432 151.45C131.702 154.34 138.752 164.13 138.752 164.13L125.592 174.68C125.592 174.68 120.132 163.68 119.092 161.9C118.052 160.12 116.802 152.46 120.192 146.97C123.582 141.48 128.462 140 129.672 144.06Z" fill="white"/>
<g style="mix-blend-mode:multiply" opacity="0.5">
<path d="M122.912 158.52L128.622 170.36L125.582 174.69L119.842 164.44L122.912 158.52Z" fill="#337ACC"/>
</g>
<path d="M129.672 144.06C129.672 144.06 129.162 148.56 130.432 151.45C131.702 154.34 138.752 164.13 138.752 164.13L125.592 174.68C125.592 174.68 120.132 163.68 119.092 161.9C118.052 160.12 116.802 152.46 120.192 146.97C123.582 141.48 128.462 140 129.672 144.06Z" stroke="#263238" stroke-miterlimit="10"/>
<path d="M133.751 135.82C132.941 130.82 127.211 120.65 118.121 121.04C112.221 121.3 109.461 122.49 106.901 123.94C104.814 125.169 102.869 126.625 101.101 128.28C96.6611 133.61 95.1011 135.07 95.9611 139.15C95.8905 140.777 96.1455 142.402 96.7111 143.93C98.0711 147.56 99.0011 149.93 100.181 151.66C99.8211 153.35 98.8811 157.81 98.8311 158.83C98.7811 159.85 101.831 159.14 103.371 158.75C106.231 165.15 111.471 169.59 113.101 170.1C115.941 170.99 120.431 166.32 122.811 162.7C125.191 159.08 123.391 155.01 123.401 153.39C123.411 151.77 128.751 148.21 130.731 147.08C132.711 145.95 134.551 140.81 133.751 135.82Z" fill="white"/>
<g style="mix-blend-mode:multiply" opacity="0.5">
<path d="M96.0009 139.15C95.9304 140.777 96.1854 142.402 96.7509 143.93C98.1109 147.56 99.0409 149.93 100.221 151.66C99.8609 153.35 98.9209 157.81 98.8709 158.83C98.8209 159.85 101.871 159.14 103.411 158.75C106.271 165.15 111.511 169.59 113.141 170.1C115.981 170.99 120.471 166.32 122.851 162.7C123.446 161.796 123.832 160.771 123.981 159.7C123.851 159.23 123.761 158.94 123.761 158.94C123.761 158.94 122.421 164.09 119.761 163.42C117.101 162.75 113.031 157.42 110.761 155.58C108.491 153.74 109.421 151.32 108.971 148.58C108.521 145.84 101.801 143.43 101.351 141.86C100.901 140.29 102.471 133.79 102.471 133.79C102.471 133.79 105.021 130.39 104.471 131.79C104.082 133.004 103.941 134.283 104.056 135.553C104.171 136.822 104.54 138.056 105.141 139.18C105.562 140.067 106.231 140.813 107.067 141.33C107.902 141.846 108.869 142.11 109.851 142.09L112.291 130L107.141 125.74L101.141 128.24C96.6609 133.61 95.1309 135.07 96.0009 139.15Z" fill="#337ACC"/>
</g>
<path d="M133.751 135.82C132.941 130.82 127.211 120.65 118.121 121.04C112.221 121.3 109.461 122.49 106.901 123.94C104.814 125.169 102.869 126.625 101.101 128.28C96.6611 133.61 95.1011 135.07 95.9611 139.15C95.8905 140.777 96.1455 142.402 96.7111 143.93C98.0711 147.56 99.0011 149.93 100.181 151.66C99.8211 153.35 98.8811 157.81 98.8311 158.83C98.7811 159.85 101.831 159.14 103.371 158.75C106.231 165.15 111.471 169.59 113.101 170.1C115.941 170.99 120.431 166.32 122.811 162.7C125.191 159.08 123.391 155.01 123.401 153.39C123.411 151.77 128.751 148.21 130.731 147.08C132.711 145.95 134.551 140.81 133.751 135.82Z" stroke="#263238" stroke-miterlimit="10"/>
<path d="M101.422 148.64L102.422 151.5C102.422 151.5 104.572 152.21 107.192 149.35" stroke="#263238" stroke-miterlimit="10" stroke-linecap="round"/>
<path d="M108.811 162C108.811 162 111.191 161.76 112.151 158.42" stroke="#263238" stroke-miterlimit="10" stroke-linecap="round"/>
<path d="M99.752 146.25C99.752 146.25 100.462 144.1 104.752 144.1" stroke="#263238" stroke-miterlimit="10" stroke-linecap="round"/>
<path d="M121.741 117.06C118.624 116.612 115.48 116.371 112.331 116.34C112.331 116.34 102.911 110.91 93.8611 116.7C84.8111 122.49 89.1611 132.63 89.1611 135.16C89.1611 137.69 86.2611 137.7 88.0711 140.96C89.8811 144.22 96.0011 142.42 96.0011 142.42C96.0658 141.19 96.3907 139.988 96.9544 138.894C97.5181 137.799 98.3078 136.837 99.2711 136.07C102.531 133.54 105.131 132.99 106.211 133.72C106.211 133.72 105.491 139.15 106.571 141.32C106.571 141.32 110.191 143.13 111.281 143.13C112.371 143.13 110.571 144.66 114.181 146.02C114.839 146.256 115.542 146.337 116.236 146.255C116.93 146.173 117.596 145.932 118.181 145.55C118.711 143.35 119.871 140.04 122.031 140.81C125.201 141.94 128.091 149.74 123.801 152.4C128.961 153.34 135.211 144.21 135.581 135.89C135.951 127.57 127.101 118 121.741 117.06Z" fill="#263238"/>
<path d="M106.371 130.15C106.371 130.15 109.031 128.72 112.291 131.78C115.551 134.84 121.891 138.93 130.291 136.68" stroke="white" stroke-width="0.5" stroke-linecap="round" stroke-linejoin="round"/>
<path d="M106.002 127.7C106.002 127.7 107.832 124.84 110.892 124.84C113.952 124.84 121.102 129.13 126.812 129.13" stroke="white" stroke-width="0.5" stroke-linecap="round" stroke-linejoin="round"/>
<path d="M103.921 133.21C103.921 133.21 100.451 128.93 97.1914 132.4C93.9314 135.87 96.0014 139.15 96.0014 139.15" stroke="white" stroke-width="0.5" stroke-linecap="round" stroke-linejoin="round"/>
<path d="M90.0508 136.07C92.0393 134.277 93.2754 131.797 93.5108 129.13C93.9208 124.64 100.051 120.76 103.921 124.44" stroke="white" stroke-width="0.5" stroke-linecap="round" stroke-linejoin="round"/>
<path d="M96.3711 119.74C96.3711 119.74 102.501 113.82 107.601 121.37" stroke="white" stroke-width="0.5" stroke-linecap="round" stroke-linejoin="round"/>
<path d="M146.261 410.81C146.261 410.81 150.031 416.67 149.611 420.44L149.201 424.21C149.201 424.21 135.371 428 132.441 428C129.511 428 114.001 426.53 114.001 426.53L113.331 423.87C113.284 423.674 113.306 423.467 113.393 423.285C113.481 423.103 113.628 422.956 113.811 422.87L127.641 416.42L132.001 411.65L146.261 410.81Z" fill="white" stroke="#263238" stroke-miterlimit="10"/>
<path d="M134.541 425.05C138.291 425.34 145.411 423.05 149.541 421.59L149.251 424.21C149.251 424.21 135.371 428 132.441 428C129.511 428 114.001 426.53 114.001 426.53L113.521 424.63C116.001 424.64 129.581 424.67 134.541 425.05Z" fill="#337ACC" stroke="#263238" stroke-miterlimit="10"/>
<path d="M127.662 416.42L107.532 425.18C107.532 425.18 105.812 429.49 107.532 430.35C109.252 431.21 146.752 430.35 146.752 430.35C146.752 430.35 149.342 423.54 145.252 418.97C141.162 414.4 127.662 416.42 127.662 416.42Z" fill="white" stroke="#263238" stroke-miterlimit="10"/>
<path d="M146.752 430.35C146.752 430.35 109.252 431.21 107.532 430.35C106.702 429.93 106.672 428.72 106.862 427.57H147.412C147.279 428.515 147.058 429.446 146.752 430.35Z" fill="#337ACC" stroke="#263238" stroke-miterlimit="10"/>
<path d="M118.141 264.21C118.141 264.21 112.881 287.52 110.891 302.1C108.901 316.68 107.731 345.89 108.151 349.24C108.571 352.59 129.511 408.72 129.511 408.72L131.601 413.72L146.261 410.79C146.261 410.79 139.561 389.43 137.051 377.7C134.541 365.97 129.051 346.7 129.051 343.35C129.051 340 142.051 276.02 142.981 271.82C143.911 267.62 148.131 261.17 148.131 261.17L120.061 260.6L118.141 264.21Z" fill="#337ACC" stroke="#263238" stroke-miterlimit="10"/>
<path d="M118.141 264.21C118.141 264.21 115.061 285.5 116.331 300.3C117.601 315.1 120.331 346.61 120.331 351.3C120.331 355.99 127.901 384 128.331 392.8C129.001 405.51 128.061 411.8 128.061 411.8L127.611 416.41C127.611 416.41 136.44 417.67 138.37 418.22C140.6 418.794 142.9 419.043 145.2 418.96C145.2 418.96 148.411 404.83 148.411 392.79C148.411 380.75 145.741 355.97 144.411 345.93C143.081 335.89 147.27 297.16 149.65 289.93C152.03 282.7 157.23 267.39 153.73 259.57C150.23 251.75 118.141 264.21 118.141 264.21Z" fill="#337ACC" stroke="#263238" stroke-miterlimit="10"/>
<path d="M157.621 255.65L157.301 265.17C157.301 265.17 151.601 266.3 143.921 267.63C137.581 268.73 121.661 267.34 116.301 266.82C115.813 266.777 115.361 266.542 115.045 266.168C114.728 265.793 114.572 265.309 114.611 264.82L115.131 256.22L157.621 255.65Z" fill="#263238"/>
<path d="M135.341 160.75C135.341 160.75 126.341 170.48 122.951 176.53C119.561 182.58 118.221 191.85 116.951 199.15C115.681 206.45 119.121 223.59 118.151 231.46L115.081 256.25C115.081 256.25 114.421 257.93 116.631 259.77C118.841 261.61 129.631 262.28 139.381 262.77C142.941 262.95 153.571 260.66 155.311 260.55C157.411 260.42 157.481 257.75 157.571 255.65C157.991 245.78 159.771 219.47 160.941 208.01C163.351 184.64 150.161 162.08 135.341 160.75Z" fill="white" stroke="#263238" stroke-miterlimit="10"/>
<g style="mix-blend-mode:multiply">
<path d="M159.842 221.3C160.242 216.11 160.642 211.4 160.992 208.01C161.092 207.01 161.152 206.01 161.202 205.01L137.292 209.01L116.752 202.01C116.754 206.26 116.995 210.507 117.472 214.73L137.622 220.37L159.842 221.3Z" fill="#337ACC"/>
</g>
<g style="mix-blend-mode:multiply">
<path d="M134.45 161.73C133.09 163.24 130.39 166.31 127.82 169.57L143 185L148 183L134.45 161.73Z" fill="#337ACC"/>
</g>
<path d="M135.341 160.75C135.341 160.75 126.341 170.48 122.951 176.53C121.946 178.369 121.132 180.305 120.521 182.31L138.621 161.4C137.552 161.076 136.454 160.858 135.341 160.75Z" fill="#263238"/>
<g style="mix-blend-mode:multiply">
<path d="M117.65 195.21L137.29 201.67L161.14 198.93C160.767 192.989 159.447 187.145 157.23 181.62L138 189.33L120.81 181.54C119.405 186.008 118.348 190.578 117.65 195.21Z" fill="#337ACC"/>
</g>
<g style="mix-blend-mode:multiply">
<path d="M151.461 245.78C141.5 247.452 131.279 246.617 121.721 243.35L116.931 241.71L115.441 253.71L120.901 255.24C131.281 258.142 142.13 258.978 152.831 257.7L157.241 257.17C157.471 256.684 157.6 256.157 157.621 255.62C157.741 252.95 157.951 249.07 158.221 244.62L151.461 245.78Z" fill="#337ACC"/>
</g>
<g style="mix-blend-mode:multiply">
<path d="M154.132 229.44C144.17 231.119 133.947 230.28 124.392 227L118.292 224.91C118.444 227.088 118.413 229.276 118.202 231.45L117.492 237.22L123.572 238.92C133.948 241.825 144.793 242.664 155.492 241.39L158.492 241.03C158.742 237.03 159.032 232.77 159.342 228.56L154.132 229.44Z" fill="#337ACC"/>
</g>
<path d="M60.3131 187.152L79.6484 202.698L80.4818 201.661L61.1464 186.115L60.3131 187.152Z" fill="#263238"/>
<path d="M144.652 171.54C144.652 171.54 151.742 176.37 151.902 187.78C151.972 192.78 151.452 197.45 150.302 205.64C149.152 213.83 142.012 240.5 136.452 243.74C130.892 246.98 122.262 240.86 122.262 240.86L80.5216 213.15L70.4316 205L65.4316 195.56L67.0016 192.56L79.3116 202L72.6816 195.87L73.9816 194.22L76.3816 195.89L83.3816 198.51L84.9116 208.51L87.0716 209.99L127.002 224.58C127.002 224.58 126.502 203.09 126.872 198.98C127.242 194.87 127.752 184.54 132.152 177.05" fill="white"/>
<g style="mix-blend-mode:multiply" opacity="0.5">
<path d="M126.722 208.34C126.722 215.76 126.972 224.58 126.972 224.58L87.0817 210.05L84.9217 208.57L83.3917 198.57L76.3917 195.95L74.0017 194.25L72.7017 195.9L79.3117 202L67.0017 192.56L65.5117 195.51L70.5117 204.95L80.6017 213.15L83.1417 214.84L138.292 232.61L126.722 208.34Z" fill="#337ACC"/>
</g>
<path d="M144.652 171.54C144.652 171.54 151.742 176.37 151.902 187.78C151.972 192.78 151.452 197.45 150.302 205.64C149.152 213.83 142.012 240.5 136.452 243.74C130.892 246.98 122.262 240.86 122.262 240.86L80.5216 213.15L70.4316 205L65.4316 195.56L67.0016 192.56L79.3116 202L72.6816 195.87L73.9816 194.22L76.3816 195.89L83.3816 198.51L84.9116 208.51L87.0716 209.99L127.002 224.58C127.002 224.58 126.502 203.09 126.872 198.98C127.242 194.87 127.752 184.54 132.152 177.05" stroke="#263238" stroke-miterlimit="10"/>
<path d="M127.001 224.58L142.241 235.58L146.191 228.58C146.191 228.58 148.921 226.43 149.321 224.81C149.721 223.19 149.211 220.56 149.621 218.94C150.031 217.32 152.071 215.8 152.261 211.88C152.451 207.96 152.261 204.69 152.261 204.69C152.261 204.69 155.561 191.12 155.201 185.22C154.841 179.32 149.151 168.89 144.591 168.66C140.031 168.43 134.101 169.12 129.501 176.08C124.901 183.04 125.841 203.36 125.121 204.63C124.401 205.9 125.401 212.17 125.401 212.17C125.001 212.468 124.669 212.848 124.428 213.284C124.187 213.72 124.041 214.203 124.001 214.7C123.921 216.33 125.681 220.34 125.681 220.34L127.001 224.58Z" fill="white" stroke="#263238" stroke-miterlimit="10"/>
<g style="mix-blend-mode:multiply">
<path d="M125.522 199.41C125.553 201.155 125.422 202.899 125.132 204.62C124.492 205.76 125.222 210.91 125.382 211.96C133.953 214.622 143.017 215.306 151.892 213.96C152.082 213.264 152.196 212.55 152.232 211.83C152.432 207.92 152.232 204.64 152.232 204.64C152.232 204.64 152.522 203.43 152.922 201.59C143.731 202.174 134.504 201.44 125.522 199.41Z" fill="#337ACC"/>
</g>
<g style="mix-blend-mode:multiply">
<path d="M128.881 177.19C127.451 180.06 126.651 184.37 126.191 188.74C135.27 192.205 145.057 193.396 154.701 192.21C155.086 189.897 155.257 187.554 155.211 185.21C155.038 183.357 154.6 181.539 153.911 179.81C145.491 180.006 137.079 179.126 128.881 177.19Z" fill="#337ACC"/>
</g>
<path d="M125.682 220.45L126.972 224.58L142.212 235.58L146.162 228.58C146.162 228.58 148.892 226.43 149.292 224.81C149.363 224.528 149.407 224.24 149.422 223.95C141.391 223.811 133.411 222.635 125.682 220.45Z" fill="#263238"/>
<path d="M136.712 418.09C136.712 418.09 137.052 409.43 138.712 396.77C140.372 384.11 136.382 366.13 135.712 363.13C135.042 360.13 136.052 353.47 135.382 351.13C134.712 348.79 131.472 338.81 133.382 327.23C135.292 315.65 136.842 285.04 136.842 285.04C136.842 285.04 132.032 281.13 130.622 276.04C129.212 270.95 130.292 269.35 130.292 269.35" stroke="#263238" stroke-miterlimit="10"/>
<path d="M138.942 269.82L137.092 280.06" stroke="#263238" stroke-miterlimit="10"/>
</svg>
